<svg width="800" height="600" viewBox="0 0 1029 759" fill="none" xmlns="http://www.w3.org/2000/svg">
<path d="M1318.3 394.363C1459.05 611.605 1432.25 878.773 1258.75 991.185C1085.25 1103.6 830.458 1018.88 689.703 801.637C548.949 584.394 575.751 317.226 749.25 204.815C922.748 92.4025 1177.54 177.12 1318.3 394.363Z" stroke="white" stroke-opacity="0.6"/>
<path d="M1283.95 436.618C1409.33 630.135 1385.44 868.105 1230.92 968.226C1076.39 1068.35 849.434 992.899 724.052 799.382C598.67 605.865 622.555 367.895 777.083 267.774C931.611 167.653 1158.56 243.101 1283.95 436.618Z" stroke="white" stroke-opacity="0.6"/>
<path d="M746.427 678.24C942.786 799.122 1023.45 1024.27 926.925 1181.07C830.398 1337.87 593.043 1367.24 396.683 1246.36C200.324 1125.48 119.657 900.325 216.184 743.527C312.712 586.73 550.067 557.358 746.427 678.24Z" stroke="white" stroke-opacity="0.6"/>
<path d="M735.509 768.343C917.971 909.329 974.355 1141.75 861.775 1287.45C749.194 1433.16 510.064 1437.24 327.601 1296.26C145.138 1155.27 88.7546 922.845 201.335 777.144C313.915 631.444 553.046 627.358 735.509 768.343Z" stroke="white" stroke-opacity="0.6"/>
</svg>
